<?xml version="1.0" encoding="utf-8"?>
<!-- Generator: Adobe Illustrator 26.5.0, SVG Export Plug-In . SVG Version: 6.00 Build 0)  -->
<svg version="1.1" id="Layer_1" xmlns="http://www.w3.org/2000/svg" xmlns:xlink="http://www.w3.org/1999/xlink" x="0px" y="0px"
	 viewBox="0 0 95.2 69.9" style="enable-background:new 0 0 95.2 69.9;" xml:space="preserve">
<style type="text/css">
	.st0{fill:#A4EBF3;}
	.st1{fill:#74C1C1;}
</style>
<path class="st0" d="M29.5,28.6c0.5-3.3,1.5-6.4,3.2-9.2c2.9-4.6,6.8-7.9,12.3-8.5c8.1-1,14.2,2.5,16.2,10.8
	c0.5,2.1,0.7,4.3,1.1,6.5c0.3,0,0.7,0,1.1,0c2.5,0,4,1.8,3.2,4.2c-1.1,3.6-3.7,5.7-7.1,7c-0.5,0.2-0.9,0.5-1.2,0.9
	c-3.4,4.8-4.9,10.3-4.8,16.1c0,2.3-1.1,3.2-3.4,2.6c-3.7-0.8-6.8-2.8-9.7-5.1c-3.6-3-6.5-6.6-8.6-10.8c-0.1-0.2-0.2-0.3-0.2-0.5
	c-0.2-0.5-0.3-0.9,0.3-1.2c0.5-0.3,0.8,0.1,1,0.5c0.4,0.8,0.8,1.5,1.2,2.3c3.2,5.3,7.3,9.5,12.9,12.2c1.2,0.6,2.5,0.9,3.7,1.3
	c1,0.3,1.3,0,1.3-1.1c0-4.5,0.7-8.9,2.7-12.9c0.9-1.8,1.9-3.4,3-5.1c0.2-0.3,0.7-0.5,1-0.6c3-0.8,5.1-2.6,6.4-5.4
	c0.1-0.2,0.2-0.4,0.2-0.7c0.4-1.5-0.3-2.4-1.9-2.3c-0.4,0-0.9,0.1-1.3,0.2c-1.1,0.3-1.3,0.1-1.4-1.1c-0.1-2.7-0.4-5.5-1.2-8.1
	c-2.1-6.6-7.2-9-13.5-8.5c-7.1,0.7-11.2,5.1-13.6,11.4c-0.7,1.8-1,3.8-1.4,5.8c-0.2,1.1-0.5,1.2-1.5,0.8c-0.6-0.3-1.3-0.5-2-0.6
	c-1.4-0.1-2.1,0.7-1.9,2.1c0.5,2.4,1.9,4.2,3.9,5.6c0.5,0.3,1,0.6,1.6,0.9c0.5,0.2,0.9,0.5,0.6,1.1s-0.8,0.4-1.2,0.2
	c-2.4-1.1-4.2-2.8-5.4-5.1c-0.3-0.6-0.6-1.3-0.7-2c-0.7-2.9,1.3-4.8,4.2-4.1C28.7,28.4,29.1,28.5,29.5,28.6z"/>
<path class="st1" d="M9,34.6c3,0,5.9,0,8.8,0c0-1.9,0-3.7,0-5.5c0-1,0.5-1.5,1.3-1.6c0.9-0.1,1.5,0.5,1.5,1.6c0,2.2,0,4.5,0,6.7
	c0,4.3,0,8.5,0,12.8c0,0.8-0.2,1.4-1,1.7c-1,0.4-1.9-0.4-1.9-1.6c0-3.4,0-6.7,0-10.1c0-0.3,0-0.6,0-1.1c-0.4,0-0.7,0-1,0
	c-3.3,0-6.6,0-9.8,0c-0.7,0-1.4-0.1-1.9-0.8c-0.4-0.7,0-1.3,0.3-1.9c3.7-5.9,7.3-11.9,11-17.8c0.6-1,1.4-1.2,2.1-0.8
	c0.8,0.5,0.9,1.3,0.3,2.3c-3.1,5-6.2,10-9.3,15.1C9.4,33.9,9.2,34.2,9,34.6z"/>
<path class="st1" d="M74.8,34.6c3,0,5.8,0,8.8,0c0-0.3,0-0.6,0-0.9c0-1.5,0-3.1,0-4.6c0-0.9,0.6-1.5,1.4-1.5s1.4,0.6,1.4,1.5
	c0,6.6,0,13.2,0,19.8c0,0.9-0.6,1.5-1.4,1.5s-1.4-0.6-1.4-1.6c0-3.4,0-6.8,0-10.2c0-0.3,0-0.6,0-1.1c-0.4,0-0.7,0-1,0
	c-3.3,0-6.6,0-9.9,0c-0.7,0-1.4-0.1-1.8-0.8s-0.1-1.3,0.3-1.8c3.7-6,7.3-11.9,11-17.9c0.6-1,1.4-1.2,2.2-0.8
	c0.8,0.5,0.9,1.3,0.3,2.3c-3.1,5-6.2,10.1-9.3,15.1C75.2,33.9,75,34.2,74.8,34.6z"/>
<path class="st1" d="M49.3,31.9c0,1.2-0.3,2.5-1.1,3.6c-1.3,1.8-3.5,1.8-4.9,0.1c-1.6-2.1-1.6-5.5,0-7.5c1.3-1.6,3.4-1.6,4.7,0
	C48.9,29.1,49.3,30.4,49.3,31.9z M43.3,31.8c0.4,1,0.6,2,1.2,2.8c0.7,1.1,1.7,1,2.5,0c1.1-1.4,1.2-4.2,0-5.6c-0.8-1-1.9-1-2.6,0
	C43.9,29.8,43.7,30.8,43.3,31.8z"/>
<path class="st1" d="M48.4,22.8c0-0.3,0-0.8,0.2-1.2c0.1-0.3,0.6-0.5,0.9-0.5c0.2,0,0.5,0.5,0.5,0.8c-0.2,1.5,0,2.7,1.2,3.7
	c0.2,0.1,0.2,0.8,0,0.9c-0.3,0.2-0.8,0.2-1,0.1C49,25.7,48.5,24.4,48.4,22.8z"/>
<path class="st1" d="M42.9,22.8c-0.1,1.5-0.5,2.7-1.6,3.6c-0.4,0.3-0.8,0.6-1.3,0.1c-0.4-0.5-0.2-0.9,0.3-1.2c1-0.8,1.2-1.9,1-3.1
	c-0.1-0.5-0.1-1,0.5-1.1s0.8,0.3,0.9,0.9C42.9,22.3,42.9,22.7,42.9,22.8z"/>
</svg>
