<?xml version="1.0" encoding="utf-8"?>
<!-- Generator: Adobe Illustrator 26.5.0, SVG Export Plug-In . SVG Version: 6.00 Build 0)  -->
<svg version="1.1" id="Layer_1" xmlns="http://www.w3.org/2000/svg" xmlns:xlink="http://www.w3.org/1999/xlink" x="0px" y="0px"
	 viewBox="0 0 95.2 69.9" style="enable-background:new 0 0 95.2 69.9;" xml:space="preserve">
<style type="text/css">
	.st0{fill:#A4EBF3;}
	.st1{fill:#75CDD1;}
</style>
<path class="st0" d="M95.2,36.6c0,4.5,0,9,0,13.5c0,3.1-1.6,5.3-4.5,6.1C77.6,60.1,64.5,64,51.4,67.9c-2.5,0.7-5,0.8-7.5,0
	C31,64,18.2,60.2,5.3,56.3c-3.1-0.9-4.6-3-4.6-6.1c0-9,0-18.1,0-27.1c0-3.1,1.6-5.2,4.6-6.1C18.1,13,31,9.2,43.8,5.3
	c2.5-0.8,5.1-0.8,7.6,0C64.5,9.2,77.6,13.1,90.7,17c2.9,0.8,4.5,3.1,4.5,6.1C95.2,27.5,95.2,32.1,95.2,36.6z M91.7,36.6
	c0-4.5,0-8.9,0-13.4c0-1.5-0.6-2.4-2-2.8c-13.2-3.9-26.4-7.9-39.6-11.8c-1.8-0.5-3.5-0.5-5.3,0C32,12.6,19.1,16.5,6.3,20.4
	c-1.6,0.5-2.1,1.2-2.1,2.9c0,8.9,0,17.8,0,26.8c0,1.6,0.6,2.3,2.1,2.8c12.9,3.9,25.7,7.8,38.6,11.7c1.8,0.6,3.7,0.6,5.5,0
	c13.1-3.9,26.1-7.8,39.2-11.7c1.7-0.5,2.2-1.3,2.2-3C91.7,45.4,91.7,41,91.7,36.6z"/>
<path class="st1" d="M19.8,28.7c0-1.2,0-2.2,0-3.4c1.5,0,2.9-0.1,4.4,0c2.4,0.2,3.7,1.8,4.4,3.9c0.5,1.4,1.2,1.6,2.5,1.6
	c5.7-0.1,11.4,0,17.1,0c1.9,0,2.9,1.1,2.6,3c-0.4,2.3-1.1,4.5-2.3,6.6c-1,1.7-2.5,2.6-4.6,2.6c-3.3,0-6.7,0-10.1,0
	c0.1,0.9,0.7,1.1,1.4,1.1c3.1,0,6.2,0,9.3,0c1.7,0,3.5,0,5.2,0c0,1.2,0,2.3,0,3.4c-1.5,0-2.9,0-4.4,0c-3.4,0-6.9-0.1-10.3,0
	c-2.3,0-3.8-1-4.6-3.1C29,40.2,27.6,36,26,31.9c-1.2-3.2-1.2-3.2-4.6-3.2C20.9,28.7,20.4,28.7,19.8,28.7z M35.7,37.2
	c-0.1,0-0.3,0-0.4,0c-0.3,0.4-0.8,0.8-0.9,1.3c-0.1,0.6,0.3,1.1,1,1.1c0.6,0.1,1.3-0.5,1.1-1.1C36.4,38,36,37.7,35.7,37.2z
	 M36.4,34.9c0,0.2,0,0.3,0,0.5c0.4,0.3,0.8,0.8,1.2,0.9c0.6,0.1,1.1-0.3,1.2-1c0.1-0.6-0.5-1.3-1.1-1.1
	C37.2,34.2,36.8,34.6,36.4,34.9z M41.2,38.8c0-0.1,0-0.3,0-0.4c-0.4-0.3-0.8-0.8-1.2-0.9c-0.7-0.1-1.2,0.4-1.2,1.1
	c0,0.7,0.5,1.2,1.1,1.1C40.3,39.5,40.7,39.1,41.2,38.8z M43.3,35.5c-0.1-1-0.5-1.4-1.2-1.4c-0.7,0-1.1,0.4-1.1,1.1
	c0,0.6,0.6,1.3,1.1,1.1C42.6,36.1,43,35.7,43.3,35.5z M45.6,38.7c0-0.2,0-0.3,0-0.5c-0.4-0.3-0.8-0.8-1.2-0.9
	c-0.6-0.1-1.1,0.4-1.1,1c-0.1,0.6,0.5,1.3,1.1,1.1C44.8,39.5,45.2,39,45.6,38.7z M46.8,33.9c-0.2,0-0.3,0-0.5,0
	c-0.3,0.4-0.7,0.8-0.8,1.3c-0.1,0.6,0.4,1,1.1,1.1c0.6,0,1.3-0.6,1.1-1.2C47.5,34.7,47.1,34.3,46.8,33.9z M34.5,35.4
	c-0.2-0.9-0.6-1.3-1.3-1.3c-0.7,0-1.1,0.4-1.1,1.1c0,0.7,0.5,1.2,1.1,1.1C33.7,36.2,34.1,35.7,34.5,35.4z"/>
<path class="st1" d="M73.5,53.1c-1.2,0-2.3,0-3.4,0c0-7.4,0-14.7,0-22.2c1.1,0,2.2,0,3.4,0c0,0.8,0,1.6,0,2.6
	c1.1-1.4,2.2-2.4,3.8-2.7c4.5-1.1,9.1,2.4,9.4,7.1c0.2,3.1-0.5,5.8-3,7.8c-2.8,2.3-6.4,2.2-9.3-0.1c-0.2-0.2-0.5-0.4-0.9-0.7
	c0,1.5,0,2.9,0,4.2C73.5,50.4,73.5,51.7,73.5,53.1z M83.2,39.1c0-2.5-1.4-4.6-3.5-5.2c-3-0.9-5.7,1-6.2,4.5
	c-0.4,2.9,1.6,5.7,4.3,5.9C80.8,44.5,83.2,42.2,83.2,39.1z"/>
<path class="st1" d="M9.6,44c0.8-0.9,1.5-1.8,2.2-2.7c0.7,0.5,1.3,1,2,1.4c1.9,1.1,3.9,1.7,6.1,1.3c1.4-0.3,2.3-1.2,2.4-2.3
	c0.1-1.2-0.3-2-1.4-2.5c-1.2-0.5-2.5-0.8-3.7-1.2c-1.4-0.5-3-0.9-4.3-1.7c-3.3-2.1-3.4-7.1-0.2-9.4c1.6-1.1,3.4-1.6,5.4-1.6
	c0,1.1,0,2.2,0,3.3c-0.7,0.1-1.3,0.2-1.9,0.4c-1.3,0.3-1.9,1.1-2,2.2c-0.1,1.1,0.5,1.9,1.6,2.4c1.2,0.5,2.4,0.8,3.7,1.2
	c1.2,0.4,2.4,0.8,3.5,1.3c4.2,1.8,4.1,7.9,0.6,10.1c-2.6,1.7-5.4,1.7-8.2,1.1C13.2,46.6,11.3,45.5,9.6,44z"/>
<path class="st1" d="M68.4,39c0,4.9-3.6,8.4-8.6,8.4c-4.9,0-8.5-3.6-8.5-8.4c0-4.8,3.8-8.4,8.6-8.4C64.7,30.6,68.4,34.2,68.4,39z
	 M64.9,39.1c0-3.1-2.1-5.3-5.1-5.4c-3,0-5.2,2.2-5.2,5.3c0,3.1,2.2,5.3,5.1,5.3C62.8,44.3,64.9,42.1,64.9,39.1z"/>
<path class="st0" d="M43.3,53.1c-1.2,0-2.3-1-2.3-2.3c0-1.3,1.1-2.3,2.3-2.3c1.2,0,2.2,1.1,2.2,2.3C45.6,52.1,44.5,53.1,43.3,53.1z"
	/>
<path class="st0" d="M36.6,53.1c-1.3,0-2.3-0.9-2.3-2.2c0-1.3,1-2.4,2.3-2.4c1.2,0,2.3,1,2.3,2.3C38.9,52,37.9,53.1,36.6,53.1z"/>
</svg>
